#!OML:ASF H:\ManfredETheater\Project 1\Capture day 1\Session 1\subject.ASF
:FULLY-SPECIFIED
:DEGREES
129
root 8.11202 15.7544 25.1178 5.49748 31.5863 -1.97024
lowerback 14.2414 -2.57197 -2.4153
upperback -0.783476 -3.57181 2.85273
thorax -8.51053 -1.54109 5.19164
lowerneck -24.0979 -0.491437 -1.41604
upperneck 10.2702 0.126167 -1.96003
head 7.01575 -0.190037 -0.408154
rclavicle 3.30976e-014 -2.50469e-014
rhumerus -71.6011 -8.77618 -75.0226
rradius 87.9953
rwrist -12.903
rhand -22.5591 11.9792
rfingers 7.12502
rthumb 3.86891 -17.9654
lclavicle 3.30976e-014 -2.50469e-014
lhumerus -48.4729 -7.84879 98.6888
lradius 107.84
lwrist 16.3211
lhand -20.2084 -10.007
lfingers 7.12502
lthumb 6.13862 19.8841
rfemur -50.8968 -14.5668 23.6603
rtibia 52.2511
rfoot -2.45962 -5.74957
rtoes -18.4532
lfemur 3.59245 -10.471 -24.0062
ltibia 82.0455
lfoot 1.65441 -10.1458
ltoes -5.99264
130
root 8.281 15.6785 25.5733 3.87478 31.1521 -3.77885
lowerback 15.2819 -2.28587 -1.05665
upperback -0.4966 -2.91896 3.17987
thorax -8.90584 -1.26625 4.69188
lowerneck -23.8425 -0.664287 -1.59554
upperneck 9.84291 -0.0840443 -1.82622
head 6.83347 -0.278454 -0.359142
rclavicle -7.8023e-015 -5.14852e-014
rhumerus -69.2893 -8.89379 -75.797
rradius 86.9281
rwrist -13.4357
rhand -22.5033 11.6496
rfingers 7.12502
rthumb 3.92272 -18.2941
lclavicle -7.8023e-015 -5.14852e-014
lhumerus -47.7873 -6.05578 98.3441
lradius 103.926
lwrist 15.0723
lhand -20.8428 -10.1884
lfingers 7.12502
lthumb 5.52617 19.7196
rfemur -49.6782 -13.3491 24.9872
rtibia 55.1171
rfoot -4.96129 -7.07614
rtoes -18.8173
lfemur 1.19941 -9.4788 -21.1244
ltibia 86.2
lfoot 0.253806 -10.5572
ltoes -6.55448
131
root 8.44791 15.6112 26.0249 2.54834 30.8528 -5.41557
lowerback 16.0693 -2.05746 0.135634
upperback -0.24817 -2.34844 3.51659
thorax -9.16321 -1.03 4.28585
lowerneck -23.6068 -0.833153 -1.7826
upperneck 9.4569 -0.280992 -1.71961
head 6.6693 -0.364271 -0.316022
rclavicle -9.28821e-014 1.25234e-014
rhumerus -66.7622 -8.75853 -76.6586
rradius 85.8681
rwrist -14.054
rhand -22.5114 11.2338
rfingers 7.12502
rthumb 3.91498 -18.7099
lclavicle -9.28821e-014 1.25234e-014
lhumerus -47.0828 -4.28715 97.9821
lradius 99.8384
lwrist 14.066
lhand -21.6388 -10.3214
lfingers 7.12502
lthumb 4.75759 19.6052
rfemur -48.4813 -12.3774 26.2421
rtibia 57.6459
rfoot -7.3773 -8.34434
rtoes -20.1067
lfemur -1.63205 -8.61476 -18.2776
ltibia 90.1349
lfoot -1.20328 -10.9017
ltoes -6.96636
132
root 8.61327 15.5517 26.4736 1.57752 30.7749 -6.73424
lowerback 16.5841 -1.8884 1.04117
upperback -0.0436563 -1.90521 3.82577
thorax -9.28148 -0.84677 4.02106
lowerneck -23.4022 -0.992386 -1.96975
upperneck 9.14669 -0.457621 -1.64917
head 6.53601 -0.44491 -0.282313
rclavicle 8.74653e-015 4.37326e-015
rhumerus -64.0752 -8.35963 -77.569
rradius 84.9024
rwrist -14.6496
rhand -22.5653 10.7407
rfingers 7.12502
rthumb 3.86286 -19.204
lclavicle 8.74653e-015 4.37326e-015
lhumerus -46.4137 -2.63995 97.6182
lradius 95.6944
lwrist 13.557
lhand -22.4922 -10.392
lfingers 7.12502
lthumb 3.93345 19.5514
rfemur -47.3071 -11.7738 27.2999
rtibia 59.8615
rfoot -9.76649 -9.58925
rtoes -22.0374
lfemur -4.90294 -7.95146 -15.7107
ltibia 93.808
lfoot -2.68859 -11.1193
ltoes -7.23912
133
root 8.77769 15.4999 26.92 0.931706 30.9608 -7.70257
lowerback 16.8571 -1.77719 1.63382
upperback 0.119894 -1.6057 4.09534
thorax -9.28374 -0.721373 3.91188
lowerneck -23.2343 -1.13656 -2.1461
upperneck 8.93548 -0.607546 -1.62983
head 6.44154 -0.518421 -0.26411
rclavicle -2.70844e-014 1.03368e-014
rhumerus -61.3121 -7.70905 -78.4866
rradius 84.1505
rwrist -15.1158
rhand -22.6379 10.2245
rfingers 7.12502
rthumb 3.79273 -19.7215
lclavicle -2.70844e-014 1.03368e-014
lhumerus -45.8483 -1.23657 97.2803
lradius 91.6591
lwrist 13.6784
lhand -23.3055 -10.4955
lfingers 7.12502
lthumb 3.1481 19.461
rfemur -46.0934 -11.5755 28.1099
rtibia 61.719
rfoot -12.1675 -10.7287
rtoes -23.7415
lfemur -8.57688 -7.49186 -13.537
ltibia 97.1369
lfoot -4.13247 -11.1848
ltoes -7.4046
134
root 8.94236 15.4571 27.3646 0.546239 31.3964 -8.34604
lowerback 16.9521 -1.71741 1.94708
upperback 0.240696 -1.43953 4.31992
thorax -9.2165 -0.649309 3.93771
lowerneck -23.0656 -1.2626 -2.27666
upperneck 8.80882 -0.734248 -1.6926
head 6.37475 -0.587627 -0.27733
rclavicle 7.72775e-014 -3.22031e-014
rhumerus -58.5776 -6.85465 -79.3741
rradius 83.7451
rwrist -15.3821
rhand -22.6891 9.73505
rfingers 7.12502
rthumb 3.74336 -20.2118
lclavicle 7.72775e-014 -3.22031e-014
lhumerus -45.4753 -0.194438 96.9971
lradius 87.9381
lwrist 14.3976
lhand -23.9384 -10.7261
lfingers 7.12502
lthumb 2.53684 19.2386
rfemur -44.8078 -11.7412 28.6636
rtibia 63.2331
rfoot -14.4651 -11.8495
rtoes -25.3809
lfemur -12.5654 -7.20448 -11.8025
ltibia 100.047
lfoot -5.48579 -11.0707
ltoes -7.47493
135
root 9.10877 15.4217 27.8059 0.322954 32.0287 -8.7721
lowerback 16.9408 -1.70486 2.1001
upperback 0.321355 -1.37538 4.50868
thorax -9.12471 -0.620247 4.03739
lowerneck -22.8982 -1.36892 -2.37079
upperneck 8.77443 -0.836801 -1.8089
head 6.33816 -0.649926 -0.31114
rclavicle -5.82439e-014 -2.80286e-014
rhumerus -55.9682 -5.86634 -80.2048
rradius 83.8182
rwrist -15.4899
rhand -22.657 9.33321
rfingers 7.12502
rthumb 3.7743 -20.6131
lclavicle -5.82439e-014 -2.80286e-014
lhumerus -45.3785 0.37723 96.8052
lradius 84.7487
lwrist 15.4708
lhand -24.3889 -11.0605
lfingers 7.12502
lthumb 2.1018 18.9089
rfemur -43.4199 -12.188 29.0274
rtibia 64.4247
rfoot -16.6325 -12.9176
rtoes -27.0592
lfemur -16.7728 -7.01975 -10.4448
ltibia 102.486
lfoot -6.74359 -10.781
ltoes -7.58183
136
root 9.27832 15.3943 28.2444 0.157191 32.78 -9.12937
lowerback 16.883 -1.72872 2.23974
upperback 0.360864 -1.36516 4.67857
thorax -9.04942 -0.616719 4.13695
lowerneck -22.7332 -1.46179 -2.42872
upperneck 8.8298 -0.92611 -1.95837
head 6.33097 -0.708791 -0.360252
rclavicle -2.90226e-014 3.18055e-015
rhumerus -53.5729 -4.83019 -80.9691
rradius 84.4648
rwrist -15.5213
rhand -22.5075 9.07508
rfingers 7.12502
rthumb 3.91874 -20.8686
lclavicle -2.90226e-014 3.18055e-015
lhumerus -45.6288 0.395601 96.747
lradius 82.2556
lwrist 16.5639
lhand -24.703 -11.633
lfingers 7.12502
lthumb 1.79841 18.3392
rfemur -41.903 -12.7859 29.315
rtibia 65.3165
rfoot -18.6243 -13.9543
rtoes -28.6536
lfemur -21.0766 -6.85638 -9.33403
ltibia 104.397
lfoot -7.91131 -10.3527
ltoes -7.65565
137
root 9.45271 15.3744 28.6804 -0.053805 33.5451 -9.55757
lowerback 16.8115 -1.77366 2.49509
upperback 0.367754 -1.36036 4.84224
thorax -9.0052 -0.620422 4.16595
lowerneck -22.5628 -1.54448 -2.4678
upperneck 8.9632 -1.00889 -2.09121
head 6.34822 -0.763498 -0.40646
rclavicle -6.37105e-014 8.34896e-015
rhumerus -51.4523 -3.80673 -81.6835
rradius 85.7396
rwrist -15.5968
rhand -22.223 8.97177
rfingers 7.12502
rthumb 4.19339 -20.9667
lclavicle -6.37105e-014 8.34896e-015
lhumerus -46.3023 -0.134767 96.8271
lradius 80.5887
lwrist 17.2345
lhand -24.801 -12.2864
lfingers 7.12502
lthumb 1.70374 17.6865
rfemur -40.2231 -13.4071 29.642
rtibia 65.9365
rfoot -20.4161 -14.9493
rtoes -30.2716
lfemur -25.3437 -6.61292 -8.34937
ltibia 105.742
lfoot -9.01413 -9.81992
ltoes -7.63621
138
root 9.63266 15.3616 29.1145 -0.315972 34.2695 -10.0508
lowerback 16.7422 -1.82501 2.86612
upperback 0.349933 -1.34249 4.98576
thorax -8.99345 -0.622887 4.10522
lowerneck -22.4026 -1.62275 -2.48839
upperneck 9.1546 -1.0958 -2.18356
head 6.38579 -0.816854 -0.443292
rclavicle 9.95911e-014 -4.45278e-014
rhumerus -49.6215 -2.83486 -82.3747
rradius 87.6255
rwrist -15.788
rhand -21.8122 9.0009
rfingers 7.12502
rthumb 4.59013 -20.9294
lclavicle 9.95911e-014 -4.45278e-014
lhumerus -47.4019 -1.14846 97.0467
lradius 79.7743
lwrist 17.2135
lhand -24.7326 -12.8649
lfingers 7.12502
lthumb 1.76986 17.1075
rfemur -38.4012 -13.9814 29.9977
rtibia 66.3365
rfoot -21.9639 -15.895
rtoes -31.9146
lfemur -29.4829 -6.27103 -7.52923
ltibia 106.499
lfoot -10.0752 -9.18141
ltoes -7.55264
139
root 9.8185 15.3561 29.5479 -0.591129 34.9062 -10.5645
lowerback 16.6607 -1.86105 3.3087
upperback 0.313875 -1.29451 5.09327
thorax -8.99867 -0.614878 3.95758
lowerneck -22.2708 -1.70535 -2.4965
upperneck 9.38644 -1.19888 -2.21852
head 6.44093 -0.873136 -0.465821
rclavicle 1.82882e-014 -2.54444e-014
rhumerus -48.0714 -1.92023 -83.0604
rradius 90.0646
rwrist -16.1198
rhand -21.3115 9.12172
rfingers 7.12502
rthumb 5.07355 -20.7975
lclavicle 1.82882e-014 -2.54444e-014
lhumerus -48.891 -2.52132 97.3874
lradius 79.753
lwrist 16.4207
lhand -24.5338 -13.3788
lfingers 7.12502
lthumb 1.9618 16.592
rfemur -36.4863 -14.442 30.3471
rtibia 66.5744
rfoot -23.2192 -16.7804
rtoes -33.6011
lfemur -33.4341 -5.83609 -6.93194
ltibia 106.657
lfoot -11.0977 -8.44487
ltoes -7.46923
140
root 10.0101 15.3569 29.9809 -0.828173 35.4067 -11.034
lowerback 16.5506 -1.85293 3.75774
upperback 0.273676 -1.19443 5.15315
thorax -8.99474 -0.583808 3.74068
lowerneck -22.1969 -1.80522 -2.52448
upperneck 9.64625 -1.33016 -2.16435
head 6.51467 -0.936302 -0.460232
rclavicle 5.46658e-015 -3.1408e-014
rhumerus -46.7518 -1.0379 -83.7341
rradius 92.9461
rwrist -16.5658
rhand -20.7764 9.27758
rfingers 7.12502
rthumb 5.59021 -20.6287
lclavicle 5.46658e-015 -3.1408e-014
lhumerus -50.6869 -4.10065 97.8227
lradius 80.4163
lwrist 15.0465
lhand -24.2594 -13.7552
lfingers 7.12502
lthumb 2.2268 16.213
rfemur -34.5466 -14.7356 30.6439
rtibia 66.7272
rfoot -24.0942 -17.602
rtoes -35.3845
lfemur -37.16 -5.31918 -6.61786
ltibia 106.222
lfoot -12.0429 -7.61747
ltoes -7.24825
141
root 10.2077 15.3646 30.4146 -1.0088 35.7674 -11.4387
lowerback 16.3933 -1.79162 4.19097
upperback 0.242365 -1.03747 5.16554
thorax -8.95501 -0.526437 3.46505
lowerneck -22.187 -1.93287 -2.57286
upperneck 9.90949 -1.50218 -2.03478
head 6.60032 -1.01312 -0.432352
rclavicle -1.71949e-014 3.22031e-014
rhumerus -45.6116 -0.159189 -84.381
rradius 96.1453
rwrist -17.0422
rhand -20.2769 9.46892
rfingers 7.12502
rthumb 6.07245 -20.4241
lclavicle -1.71949e-014 3.22031e-014
lhumerus -52.6698 -5.74142 98.3123
lradius 81.5964
lwrist 13.4879
lhand -23.8867 -13.9888
lfingers 7.12502
lthumb 2.58674 15.9753
rfemur -32.631 -14.8539 30.8762
rtibia 66.8581
rfoot -24.541 -18.3132
rtoes -37.1858
lfemur -40.6288 -4.75332 -6.57614
ltibia 105.199
lfoot -12.9045 -6.74681
ltoes -6.98585
